<svg width="189" height="31" viewBox="0 0 189 31" fill="none" xmlns="http://www.w3.org/2000/svg">
<path d="M8.224 25.354L5.636 30.454H0L15.229 0L25.389 20.329H19.682L15.229 11.383L10.716 20.329L8.224 25.354ZM30.454 30.454H24.782L22.275 25.389H27.9L30.454 30.454Z" fill="#1A202C"/>
<path d="M37.3741 0V18.464L32.3091 23.564V0H37.3741ZM52.6031 25.354V30.454H32.3141L37.3791 25.354H52.6031Z" fill="#1A202C"/>
<path d="M73.0472 21.93L78.1072 23.605C77.4229 24.6464 76.6034 25.5923 75.6702 26.418C74.7584 27.2604 73.748 27.9893 72.6612 28.589C71.5792 29.2084 70.414 29.6694 69.2012 29.958C67.962 30.3011 66.6809 30.4694 65.3952 30.458C63.3918 30.4822 61.4049 30.094 59.558 29.3176C57.711 28.5413 56.0435 27.3933 54.6592 25.945C53.2112 24.5606 52.0635 22.8933 51.2873 21.0465C50.5111 19.1998 50.123 17.2131 50.1472 15.21C50.1219 13.2118 50.5097 11.23 51.2863 9.38872C52.0629 7.54746 53.2115 5.88651 54.6602 4.51C56.0372 3.05285 57.7033 1.89929 59.5519 1.1232C61.4004 0.347097 63.3906 -0.0344444 65.3952 0.00300029C67.4338 -0.0135559 69.4543 0.387338 71.3322 1.181C73.1564 1.97641 74.8149 3.10773 76.2212 4.516L72.5652 8.091C70.6605 6.19065 68.0797 5.1234 65.3892 5.1234C62.6986 5.1234 60.1179 6.19065 58.2132 8.091C57.262 9.02041 56.5113 10.1349 56.0075 11.3657C55.5038 12.5964 55.2576 13.9174 55.2842 15.247C55.2707 16.5806 55.5233 17.9035 56.0273 19.1383C56.5313 20.3731 57.2765 21.495 58.2193 22.4383C59.1621 23.3816 60.2837 24.1273 61.5182 24.6319C62.7527 25.1365 64.0755 25.3898 65.4092 25.377C66.8625 25.3842 68.3011 25.085 69.6312 24.499C70.9322 23.8844 72.0942 23.011 73.0462 21.932L73.0472 21.93ZM65.3952 12.713H78.1072L73.0472 17.778H65.3952V12.713Z" fill="#1A202C"/>
<path d="M105.483 4.51299C106.934 5.89436 108.084 7.56059 108.86 9.40719C109.637 11.2538 110.024 13.2409 109.996 15.244C110.03 17.2488 109.647 19.2387 108.87 21.0871C108.093 22.9354 106.939 24.6018 105.483 25.98C104.081 27.4031 102.409 28.5332 100.566 29.3046C98.7229 30.076 96.7447 30.4732 94.7467 30.4732C92.7486 30.4732 90.7704 30.076 88.9273 29.3046C87.0841 28.5332 85.4127 27.4031 84.0102 25.98C82.5619 24.5956 81.4139 22.9281 80.6375 21.0812C79.8611 19.2342 79.473 17.2473 79.4972 15.244C79.4769 13.242 79.8669 11.257 80.6431 9.41143C81.4192 7.56586 82.5651 5.8988 84.0102 4.51299C85.4127 3.08985 87.0841 1.95974 88.9273 1.18838C90.7704 0.417009 92.7486 0.0197754 94.7467 0.0197754C96.7447 0.0197754 98.7229 0.417009 100.566 1.18838C102.409 1.95974 104.081 3.08985 105.483 4.51299ZM87.5502 8.08899C86.599 9.0184 85.8483 10.1329 85.3445 11.3636C84.8408 12.5944 84.5946 13.9154 84.6212 15.245C84.6077 16.5785 84.8603 17.9014 85.3642 19.1361C85.8681 20.3708 86.6132 21.4926 87.556 22.4359C88.4987 23.3792 89.6201 24.125 90.8545 24.6296C92.0889 25.1343 93.4116 25.3877 94.7451 25.375C96.0751 25.4006 97.3962 25.1535 98.6269 24.6489C99.8577 24.1443 100.972 23.3929 101.901 22.441C102.863 21.5085 103.623 20.3881 104.134 19.1495C104.645 17.9109 104.895 16.5805 104.87 15.241C104.889 13.9088 104.636 12.5867 104.125 11.356C103.615 10.1254 102.858 9.01223 101.901 8.08499C99.9965 6.18463 97.4157 5.11739 94.7252 5.11739C92.0346 5.11739 89.4538 6.18463 87.5491 8.08499L87.5502 8.08899Z" fill="#1A202C"/>
<path d="M132.597 15.2241C132.618 17.2404 132.216 19.2389 131.419 21.0911C130.624 22.8947 129.515 24.5432 128.144 25.9601C126.745 27.3552 125.09 28.4672 123.27 29.2351C121.41 30.0488 119.4 30.464 117.37 30.4541H107.243L112.328 25.3541H117.393C118.751 25.3538 120.097 25.0881 121.353 24.5721C122.567 24.057 123.667 23.307 124.589 22.3651C125.502 21.4247 126.237 20.3274 126.76 19.1261C127.289 17.8873 127.562 16.5542 127.562 15.2071C127.562 13.86 127.289 12.5268 126.76 11.2881C126.237 10.0781 125.488 8.97886 124.554 8.04906C123.622 7.12005 122.525 6.37206 121.32 5.84305C120.075 5.33821 118.743 5.07945 117.399 5.08105H112.329L107.243 5.50463e-05H117.373C119.403 -0.00550073 121.412 0.409556 123.273 1.21906C125.078 2.00221 126.718 3.12026 128.107 4.51405C129.504 5.9178 130.628 7.5688 131.422 9.38306C132.215 11.2274 132.615 13.2166 132.597 15.2241Z" fill="#1A202C"/>
<path d="M154.029 0V5.1H138.8L133.735 0H154.029ZM138.8 12.712H154.029V17.777H133.735V12.712H138.8ZM138.8 25.354H154.029V30.454H133.735V30.038L138.8 25.354Z" fill="#1A202C"/>
<path d="M173.094 11.117L169.9 15.224L157.96 0H164.479L173.094 11.117ZM169.9 15.224L173.094 19.336L164.479 30.453H157.96L169.9 15.224ZM176.334 15.224L173.095 11.117L181.774 0H188.208L176.334 15.224ZM176.334 15.224L188.209 30.453H181.775L173.095 19.336L176.334 15.224Z" fill="#1A202C"/>
</svg>
