<svg width="20" height="21" viewBox="0 0 20 21" fill="none" xmlns="http://www.w3.org/2000/svg">
<path d="M13.3074 9.52105C13.3023 9.73477 13.2343 9.94223 13.1119 10.1175C12.9894 10.2927 12.8181 10.4279 12.6192 10.5061C12.4203 10.5844 12.2028 10.6022 11.9939 10.5574C11.7849 10.5125 11.5939 10.407 11.4446 10.254C11.2953 10.1011 11.1944 9.90745 11.1546 9.69741C11.1148 9.48737 11.1379 9.27026 11.2208 9.07325C11.3038 8.87624 11.443 8.70809 11.621 8.58986C11.7991 8.47163 12.008 8.40857 12.2217 8.40858C12.3661 8.40999 12.5088 8.43992 12.6416 8.49665C12.7744 8.55338 12.8947 8.63579 12.9956 8.73916C13.0965 8.84253 13.176 8.96481 13.2295 9.09899C13.283 9.23317 13.3095 9.3766 13.3074 9.52105ZM8.33649 8.40858C8.1154 8.40327 7.89775 8.464 7.71133 8.58302C7.52491 8.70205 7.37818 8.87395 7.28988 9.07679C7.20159 9.27963 7.17573 9.5042 7.21562 9.72181C7.25551 9.93942 7.35933 10.1402 7.51382 10.2985C7.66831 10.4568 7.86646 10.5654 8.08297 10.6106C8.29947 10.6557 8.52451 10.6352 8.72933 10.5517C8.93415 10.4683 9.10946 10.3257 9.23287 10.1421C9.35628 9.95851 9.42218 9.74229 9.42218 9.52105C9.42423 9.3766 9.39775 9.23317 9.34424 9.09899C9.29073 8.96481 9.21126 8.84253 9.11038 8.73916C9.0095 8.63579 8.8892 8.55338 8.7564 8.49665C8.62359 8.43992 8.48089 8.40999 8.33649 8.40858ZM19.577 2.06457V20.045C16.8954 17.8137 17.753 18.5523 14.6382 15.8256L15.2019 17.6797H3.13063C1.92853 17.6788 0.949219 16.7571 0.949219 15.6146V2.06457C0.949219 0.922068 1.92853 0 3.13137 0H17.3949C18.5977 0 19.577 0.922068 19.577 2.06457ZM16.5434 11.566C16.5434 8.33882 15.0106 5.72305 15.0106 5.72305C13.4779 4.64062 12.0195 4.67066 12.0195 4.67066L11.8704 4.83041C13.68 5.35157 14.5208 6.10323 14.5208 6.10323C11.9924 4.79878 9.02217 4.79853 6.56955 5.81291C6.17567 5.98333 5.94147 6.1036 5.94147 6.1036C5.94147 6.1036 6.82494 5.31185 8.74091 4.79068L8.63442 4.67041C8.63442 4.67041 7.17605 4.64038 5.6433 5.7228C5.6433 5.7228 4.11055 8.33858 4.11055 11.5658C4.11055 11.5658 5.00518 13.0189 7.35706 13.0892C7.35706 13.0892 7.75094 12.6381 8.07019 12.2573C6.71832 11.8765 6.20741 11.0747 6.20741 11.0747C6.36403 11.178 6.62224 11.3117 6.64381 11.3253C7.66493 11.8451 8.78366 12.1449 9.92778 12.2053C11.0719 12.2658 12.216 12.0855 13.2861 11.6761C13.7144 11.5242 14.1249 11.3259 14.5103 11.0848C14.5103 11.0848 13.978 11.9062 12.5836 12.2774C12.903 12.6582 13.2862 13.0893 13.2862 13.0893C15.6386 13.0188 16.5434 11.5656 16.5434 11.5656V11.566Z" fill="#4A5568"/>
</svg>
